<svg width="24" height="24" viewBox="0 0 24 24" fill="none" xmlns="http://www.w3.org/2000/svg">
<path d="M9.20708 20.2929C9.5976 20.6834 9.5976 21.3166 9.20708 21.7071C8.81655 22.0976 8.18339 22.0976 7.79286 21.7071L4.49997 18.4142C3.71892 17.6332 3.71892 16.3668 4.49997 15.5858L7.79286 12.2929C8.18339 11.9024 8.81655 11.9024 9.20708 12.2929C9.5976 12.6834 9.5976 13.3166 9.20708 13.7071L6.91418 16L19 16C19.5523 16 20 16.4477 20 17C20 17.5523 19.5523 18 19 18L6.91418 18L9.20708 20.2929Z" fill="#1D1E25"/>
<path d="M5 6C4.44771 6 4 6.44772 4 7C4 7.55228 4.44772 8 5 8L17.0858 8L14.7929 10.2929C14.4024 10.6834 14.4024 11.3166 14.7929 11.7071C15.1834 12.0976 15.8166 12.0976 16.2071 11.7071L19.5 8.41421C20.281 7.63316 20.281 6.36683 19.5 5.58579L16.2071 2.29289C15.8166 1.90237 15.1834 1.90237 14.7929 2.29289C14.4024 2.68342 14.4024 3.31658 14.7929 3.70711L17.0858 6L5 6Z" fill="#1D1E25"/>
</svg>
