<svg width="178" height="169" viewBox="0 0 178 169" fill="none" xmlns="http://www.w3.org/2000/svg">
<path d="M29.0497 2.00416C29.0497 8.20061 29.9071 15.9185 29.8498 24.7219M29.8498 24.7219C29.7469 40.5211 26.6977 59.8165 10.4578 80.0875C-8.23985 103.426 6.68714 53.1565 29.8498 24.7219ZM29.8498 24.7219C37.2867 15.5923 45.5726 8.71371 53.8671 7.24505C68.6102 4.63458 68.5151 25.3265 62.3565 50.7742M62.3565 50.7742C51.8503 94.1862 23.698 151.438 21.463 130.453C20.2362 118.934 41.849 77.1391 62.3565 50.7742ZM62.3565 50.7742C75.0015 34.5176 87.2262 24.1274 93.4173 30.3185C98.5252 35.4264 99.0564 46.4878 96.7711 60.2155M96.7711 60.2155C89.8182 101.983 56.7935 168.432 47.2779 166.972C31.5093 164.553 66.7604 96.0335 96.7711 60.2155ZM96.7711 60.2155C109.209 45.3702 120.748 36.1424 127.38 39.5662C140.746 46.4658 136.583 72.7495 126.468 98.133M126.468 98.133C116.157 124.009 99.6602 148.95 89.2395 151.467C78.8272 153.983 99.4648 119.092 126.468 98.133ZM126.468 98.133C142.294 85.8494 160.307 78.3508 175.537 85.9711" stroke="#FFBC99" stroke-width="4" stroke-linecap="round"/>
</svg>
