<svg width="519" height="566" viewBox="0 0 519 566" fill="none" xmlns="http://www.w3.org/2000/svg">
<path d="M411.621 399.529L519 453.767C492.829 487.777 459.537 514.985 419.126 535.391C379.099 555.797 335.608 566 288.654 566C235.542 566 187.048 553.291 143.172 527.873C99.6819 502.455 64.8509 468.445 38.6796 425.842C12.8932 382.882 0 335.447 0 283.537C0 244.157 7.50501 207.462 22.515 173.452C37.525 139.083 58.1157 109.011 84.287 83.2353C110.843 57.1012 141.633 36.6951 176.656 22.0171C211.68 7.33902 249.012 0 288.654 0C335.608 0 379.099 10.203 419.126 30.6091C459.537 51.0152 492.829 78.4023 519 112.77L411.621 167.008C395.456 149.108 376.597 135.503 355.044 126.195C333.492 116.529 311.361 111.696 288.654 111.696C257.095 111.696 228.422 119.751 202.635 135.861C177.234 151.614 157.028 172.557 142.018 198.691C127.393 224.467 120.08 252.749 120.08 283.537C120.08 313.967 127.585 342.249 142.595 368.383C157.605 394.159 177.811 414.923 203.212 430.676C228.999 446.428 257.479 454.304 288.654 454.304C312.516 454.304 335.224 449.292 356.776 439.268C378.329 429.244 396.611 415.997 411.621 399.529Z" fill="#F2F4FC"/>
</svg>
