<svg width="9" height="14" viewBox="0 0 9 14" fill="none" xmlns="http://www.w3.org/2000/svg">
<path d="M1.32551 13.0763H7.67449C8.56353 13.0763 9 12.6402 9 11.6756V6.79402C9 5.93847 8.64804 5.49395 7.94304 5.41007V3.74926C7.94304 1.17426 6.21524 0 4.50454 0C2.78479 0 1.06506 1.17426 1.06506 3.74926V5.43521C0.402302 5.56103 0 5.9972 0 6.79402V11.6756C0 12.6402 0.444513 13.0763 1.32551 13.0763ZM2.44888 3.5983C2.44888 2.09689 3.40531 1.32531 4.50454 1.32531C5.59472 1.32531 6.55916 2.09689 6.55916 3.5983V5.39328L2.44888 5.40162V3.5983Z" fill="white"/>
</svg>
