<svg width="40" height="10" viewBox="0 0 40 10" fill="none" xmlns="http://www.w3.org/2000/svg">
<path d="M6.5793 6.73712L8.7079 7.83989C8.26283 8.42062 7.70488 8.88706 7.03405 9.23921C6.36322 9.59136 5.63111 9.76743 4.83772 9.76743C3.94758 9.76743 3.13484 9.54811 2.39951 9.10947C1.67063 8.67083 1.08688 8.08392 0.648255 7.34874C0.216085 6.60738 0 5.78879 0 4.89298C0 4.2134 0.125781 3.58016 0.377342 2.99324C0.628904 2.40016 0.973995 1.8812 1.41262 1.43639C1.85769 0.985392 2.37371 0.633245 2.96069 0.379947C3.54766 0.126649 4.17334 0 4.83772 0C5.63111 0 6.36322 0.176073 7.03405 0.528219C7.70488 0.880366 8.26283 1.35298 8.7079 1.94607L6.5793 3.03958C6.35354 2.79246 6.08586 2.60094 5.77624 2.46503C5.47308 2.32911 5.16024 2.26115 4.83772 2.26115C4.3733 2.26115 3.95403 2.38471 3.57991 2.63183C3.2058 2.87277 2.90908 3.19403 2.68977 3.5956C2.47046 3.99099 2.36081 4.42345 2.36081 4.89298C2.36081 5.35633 2.47046 5.78879 2.68977 6.19036C2.90908 6.58576 3.2058 6.90392 3.57991 7.14487C3.95403 7.38581 4.3733 7.50628 4.83772 7.50628C5.17314 7.50628 5.49243 7.43832 5.79559 7.30241C6.09876 7.16031 6.35999 6.97188 6.5793 6.73712Z" fill="#1D1E25"/>
<path d="M14.3998 9.76743C13.5096 9.76743 12.6969 9.54811 11.9616 9.10947C11.2327 8.67083 10.6489 8.08392 10.2103 7.34874C9.77815 6.60738 9.56206 5.78879 9.56206 4.89298C9.56206 4.2134 9.68784 3.58016 9.9394 2.99324C10.191 2.40016 10.5361 1.8812 10.9747 1.43639C11.4197 0.985392 11.9358 0.633245 12.5227 0.379947C13.1097 0.126649 13.7354 0 14.3998 0C15.2899 0 16.0994 0.219319 16.8283 0.657958C17.5637 1.0966 18.1474 1.6866 18.5796 2.42796C19.0182 3.16932 19.2375 3.99099 19.2375 4.89298C19.2375 5.56639 19.1117 6.19654 18.8602 6.78345C18.6086 7.37036 18.2603 7.88932 17.8152 8.34031C17.3766 8.78513 16.8638 9.13418 16.2768 9.38748C15.6963 9.64078 15.0706 9.76743 14.3998 9.76743ZM14.3998 7.50628C14.8707 7.50628 15.2932 7.38581 15.6673 7.14487C16.0414 6.90392 16.3349 6.58576 16.5477 6.19036C16.767 5.79497 16.8767 5.36251 16.8767 4.89298C16.8767 4.4111 16.7638 3.97246 16.5381 3.57707C16.3187 3.1755 16.0188 2.85733 15.6382 2.62256C15.2641 2.38162 14.8513 2.26115 14.3998 2.26115C13.9354 2.26115 13.5161 2.38162 13.142 2.62256C12.7679 2.86351 12.4711 3.18476 12.2518 3.58633C12.0325 3.9879 11.9229 4.42345 11.9229 4.89298C11.9229 5.38104 12.0357 5.82277 12.2615 6.21816C12.4873 6.61356 12.7872 6.92864 13.1613 7.1634C13.5419 7.39199 13.9547 7.50628 14.3998 7.50628Z" fill="#1D1E25"/>
<path d="M26.7806 6.73712L28.9092 7.83989C28.4641 8.42062 27.9062 8.88706 27.2353 9.23921C26.5645 9.59136 25.8324 9.76743 25.039 9.76743C24.1489 9.76743 23.3361 9.54811 22.6008 9.10947C21.8719 8.67083 21.2881 8.08392 20.8495 7.34874C20.4174 6.60738 20.2013 5.78879 20.2013 4.89298C20.2013 4.2134 20.3271 3.58016 20.5786 2.99324C20.8302 2.40016 21.1753 1.8812 21.6139 1.43639C22.059 0.985392 22.575 0.633245 23.162 0.379947C23.7489 0.126649 24.3746 0 25.039 0C25.8324 0 26.5645 0.176073 27.2353 0.528219C27.9062 0.880366 28.4641 1.35298 28.9092 1.94607L26.7806 3.03958C26.5548 2.79246 26.2871 2.60094 25.9775 2.46503C25.6743 2.32911 25.3615 2.26115 25.039 2.26115C24.5746 2.26115 24.1553 2.38471 23.7812 2.63183C23.4071 2.87277 23.1104 3.19403 22.891 3.5956C22.6717 3.99099 22.5621 4.42345 22.5621 4.89298C22.5621 5.35633 22.6717 5.78879 22.891 6.19036C23.1104 6.58576 23.4071 6.90392 23.7812 7.14487C24.1553 7.38581 24.5746 7.50628 25.039 7.50628C25.3744 7.50628 25.6937 7.43832 25.9969 7.30241C26.3 7.16031 26.5613 6.97188 26.7806 6.73712Z" fill="#1D1E25"/>
<path d="M37.6391 0.259476H40V9.52649H37.6391L37.5327 8.37738C37.2683 8.79131 36.9167 9.12801 36.4781 9.38748C36.0459 9.64078 35.5331 9.76743 34.9397 9.76743C34.2237 9.76743 33.5529 9.63769 32.9272 9.37822C32.3015 9.11874 31.75 8.76042 31.2727 8.30324C30.8018 7.84607 30.4309 7.31785 30.16 6.71858C29.8956 6.11932 29.7633 5.4768 29.7633 4.79105C29.7633 4.13 29.8891 3.50911 30.1407 2.92838C30.3987 2.34764 30.7567 1.83796 31.2146 1.39932C31.6726 0.96068 32.2015 0.6178 32.8014 0.37068C33.4013 0.12356 34.0463 0 34.7365 0C35.3751 0 35.9459 0.135916 36.4491 0.407748C36.9586 0.67958 37.3908 1.02555 37.7456 1.44565L37.6391 0.259476ZM34.8816 7.58968C35.3848 7.58968 35.8298 7.46921 36.2169 7.22827C36.6039 6.98733 36.907 6.66298 37.1263 6.25523C37.3457 5.84131 37.4553 5.38722 37.4553 4.89298C37.4553 4.39256 37.3457 3.93848 37.1263 3.53073C36.907 3.1168 36.6006 2.78937 36.2072 2.54843C35.8202 2.30749 35.3783 2.18701 34.8816 2.18701C34.385 2.18701 33.9302 2.31057 33.5174 2.5577C33.111 2.79864 32.7853 3.12298 32.5402 3.53073C32.3015 3.93848 32.1822 4.39256 32.1822 4.89298C32.1822 5.3934 32.3048 5.84748 32.5499 6.25523C32.795 6.66298 33.1207 6.98733 33.5271 7.22827C33.9399 7.46921 34.3914 7.58968 34.8816 7.58968Z" fill="#1D1E25"/>
</svg>
