<svg width="18" height="18" viewBox="0 0 18 18" fill="none" xmlns="http://www.w3.org/2000/svg">
<path d="M2.74388 13.9202H4.08478V15.2628C4.08478 17.0672 4.98223 17.9588 6.81834 17.9588H15.2664C17.0922 17.9588 18 17.0672 18 15.2628V6.73449C18 4.93005 17.0922 4.03861 15.2664 4.03861H13.9255V2.69598C13.9255 0.891441 13.0075 0 11.1817 0H2.74388C0.907774 0 0 0.891441 0 2.69598V11.2243C0 13.0287 0.907774 13.9202 2.74388 13.9202ZM2.76441 12.3735C1.99077 12.3735 1.54728 11.9546 1.54728 11.1384V2.78191C1.54728 1.96556 1.99077 1.54666 2.76441 1.54666H11.161C11.9346 1.54666 12.3783 1.96556 12.3783 2.78191V4.03861H6.81834C4.98223 4.03861 4.08478 4.93005 4.08478 6.73449V12.3735H2.76441ZM6.84932 16.4121C6.07568 16.4121 5.63207 15.9932 5.63207 15.1769V6.82052C5.63207 6.00418 6.07568 5.58528 6.84932 5.58528H15.2459C16.0196 5.58528 16.4527 6.00418 16.4527 6.82052V15.1769C16.4527 15.9932 16.0196 16.4121 15.2459 16.4121H6.84932Z" fill="white"/>
</svg>
