<svg width="94" height="26" viewBox="0 0 94 26" fill="none" xmlns="http://www.w3.org/2000/svg">
<path d="M8.95823 9.85505C5.24059 8.96877 4.57452 8.3271 4.57452 7.07409C4.57452 5.82108 5.7362 5.02649 7.4714 5.02649C9.33079 5.09525 11.1168 5.76659 12.5506 6.93656C12.5799 6.95128 12.6115 6.95892 12.6443 6.95892C12.6759 6.95892 12.7086 6.95128 12.7368 6.93656C12.7978 6.92499 12.8531 6.89252 12.8915 6.84488L14.7193 4.3083C14.7554 4.26257 14.7757 4.20605 14.7757 4.14785C14.7757 4.08965 14.7554 4.03313 14.7193 3.98741C12.7041 2.36002 10.1673 1.4933 7.56398 1.54251C3.55281 1.54251 0.749626 3.92628 0.749626 7.31858C0.749626 10.9705 3.16559 12.2694 7.34723 13.2626C10.9091 14.0725 11.5131 14.7907 11.5131 15.9673C11.5131 17.1438 10.2893 18.137 8.41521 18.137C6.20021 18.122 4.07777 17.2559 2.4995 15.7228C2.43966 15.7029 2.37418 15.7029 2.31322 15.7228C2.25 15.7379 2.1913 15.7695 2.14275 15.8145L0.0677344 18.1829C0.0248342 18.2283 0 18.2885 0 18.351C0 18.4135 0.0248342 18.4736 0.0677344 18.519C2.32225 20.5116 5.24963 21.6015 8.27635 21.5752C12.5969 21.5752 15.4012 19.2372 15.4012 15.6311C15.3391 12.6208 13.4797 10.94 8.95823 9.85505Z" fill="#808D9E"/>
<path d="M25.1272 6.23355C24.2319 6.22804 23.3479 6.42501 22.543 6.80904C21.7369 7.19308 21.0313 7.75419 20.4804 8.44924V6.76837C20.477 6.70624 20.4488 6.64792 20.4025 6.60534C20.3562 6.56276 20.2952 6.53905 20.2332 6.53916H16.8723C16.809 6.53905 16.7481 6.56276 16.7018 6.60534C16.6555 6.64792 16.6284 6.70624 16.6239 6.76837V25.4105C16.6239 25.4753 16.6499 25.5376 16.6962 25.5834C16.7436 25.6292 16.8057 25.655 16.8723 25.655H20.2015C20.267 25.655 20.3302 25.6292 20.3765 25.5834C20.4228 25.5376 20.4499 25.4753 20.4499 25.4105V19.5581C21.0189 20.224 21.7313 20.7571 22.5351 21.119C23.3378 21.481 24.2127 21.6628 25.0955 21.6515C28.5806 21.6515 32.112 19.008 32.112 13.9349C32.112 8.86181 28.6111 6.23355 25.1272 6.23355ZM28.2239 13.8737C28.2826 14.4202 28.225 14.9726 28.0557 15.496C27.8863 16.0193 27.6086 16.5023 27.2406 16.9145C26.8714 17.3266 26.4209 17.6588 25.9163 17.8904C25.4105 18.1219 24.863 18.2475 24.3064 18.2593C23.7476 18.2422 23.1989 18.1138 22.692 17.8818C22.1851 17.6496 21.7313 17.3187 21.3587 16.9089C20.985 16.4991 20.6994 16.0188 20.5188 15.4972C20.3393 14.9755 20.2682 14.4233 20.3099 13.8737C20.2704 13.3254 20.3427 12.7749 20.5244 12.255C20.7051 11.7352 20.9907 11.2568 21.3644 10.8486C21.7369 10.4405 22.1908 10.111 22.6954 9.87977C23.2012 9.64865 23.7487 9.52068 24.3064 9.5036C24.8698 9.51315 25.4252 9.63843 25.9366 9.87146C26.448 10.1045 26.9053 10.4401 27.2778 10.8569C27.6515 11.2739 27.9326 11.7629 28.1031 12.2929C28.2735 12.8228 28.3311 13.382 28.2702 13.9349L28.2239 13.8737Z" fill="#808D9E"/>
<path d="M41.1876 6.23331C39.6398 6.26061 38.1349 6.73948 36.8626 7.60946C35.5902 8.47956 34.608 9.70178 34.039 11.1221C33.47 12.5423 33.3402 14.0971 33.6654 15.5901C33.9916 17.0831 34.7582 18.4476 35.868 19.5115C36.9788 20.5753 38.3844 21.2908 39.9062 21.5676C41.428 21.8446 42.9995 21.6705 44.422 21.0675C45.8434 20.4645 47.0536 19.4594 47.8969 18.179C48.7414 16.8988 49.1817 15.4007 49.1636 13.8735C49.1489 12.8549 48.9322 11.8488 48.5235 10.9132C48.1137 9.97762 47.5221 9.13078 46.7815 8.42113C46.0409 7.71137 45.1649 7.15284 44.2053 6.77745C43.2456 6.40207 42.2194 6.21713 41.1876 6.23331ZM41.1876 18.3507C40.6152 18.3433 40.0507 18.2218 39.5269 17.9935C39.0042 17.7653 38.5323 17.435 38.1417 17.0224C37.751 16.61 37.4496 16.1238 37.2543 15.5931C37.059 15.0625 36.9743 14.4983 37.0059 13.9346C36.9698 13.3787 37.05 12.8214 37.2396 12.297C37.4304 11.7728 37.7285 11.2924 38.1146 10.8859C38.5007 10.4793 38.9669 10.155 39.484 9.93301C40.0022 9.711 40.561 9.59594 41.1255 9.59504C41.699 9.59853 42.2669 9.71639 42.7929 9.94177C43.3202 10.1671 43.7954 10.4951 44.1906 10.9061C44.5846 11.3173 44.8917 11.8029 45.0915 12.3338C45.2913 12.8646 45.3805 13.43 45.3534 13.9957C45.3895 14.5563 45.3082 15.1182 45.1152 15.6464C44.9221 16.1747 44.6207 16.6581 44.2301 17.0665C43.8384 17.475 43.3676 17.7997 42.8437 18.0206C42.3199 18.2416 41.7566 18.3539 41.1876 18.3507Z" fill="#808D9E"/>
<path d="M58.7506 6.53947H55.0804V2.84167C55.0804 2.77943 55.0567 2.71943 55.0127 2.67392C54.9698 2.62853 54.9111 2.60112 54.8478 2.59718H51.5174C51.4519 2.59718 51.3887 2.62291 51.3424 2.66875C51.2961 2.7146 51.2702 2.77684 51.2702 2.84167V6.53947H49.6287C49.5982 6.53947 49.5677 6.54542 49.5395 6.557C49.5113 6.56846 49.4853 6.58542 49.4639 6.60666C49.4424 6.62789 49.4255 6.65317 49.4142 6.68104C49.4018 6.70879 49.3961 6.73868 49.3961 6.76868V9.59559C49.3961 9.65784 49.4198 9.71784 49.4627 9.76334C49.5067 9.80873 49.5655 9.83615 49.6287 9.84008H51.1776V17.1441C51.1776 20.0933 52.7254 21.5908 55.6065 21.5908C56.6903 21.621 57.7617 21.3566 58.7043 20.8267C58.7416 20.809 58.7743 20.7808 58.7958 20.7455C58.8183 20.7102 58.8285 20.6694 58.8285 20.6281V17.9387C58.8285 17.8971 58.8195 17.8559 58.8003 17.8187C58.7811 17.7815 58.754 17.7493 58.7201 17.7248C58.6829 17.7017 58.64 17.6895 58.5959 17.6895C58.5519 17.6895 58.509 17.7017 58.4718 17.7248C57.8667 18.027 57.1983 18.1841 56.5198 18.1832C55.4518 18.1832 54.972 17.7095 54.972 16.6551V9.84008H58.6422C58.7077 9.84008 58.7709 9.81435 58.8172 9.76851C58.8635 9.72267 58.8895 9.66042 58.8895 9.59559V6.76868C58.8917 6.72126 58.8793 6.67441 58.8545 6.63362C58.8296 6.59295 58.7935 6.56025 58.7506 6.53947Z" fill="#808D9E"/>
<path d="M71.5271 6.55507V6.09665C71.5271 4.75207 72.0385 4.15613 73.2002 4.15613C73.846 4.16343 74.4861 4.28242 75.0901 4.50758C75.124 4.52275 75.1612 4.53062 75.1985 4.53062C75.2357 4.53062 75.273 4.52275 75.3069 4.50758C75.3362 4.48388 75.3611 4.45354 75.3769 4.41905C75.3927 4.38455 75.4006 4.34691 75.3994 4.30894V1.51258C75.4017 1.45899 75.387 1.40607 75.3565 1.36191C75.3249 1.31776 75.2809 1.28484 75.229 1.26809C74.3247 1.03338 73.391 0.930459 72.4574 0.962481C69.3595 0.962481 67.8106 2.67391 67.8106 5.89812V6.60091H66.2617C66.2007 6.60091 66.1409 6.62507 66.098 6.6681C66.054 6.71114 66.0291 6.76934 66.0291 6.83012V9.67232C66.0291 9.73456 66.0528 9.79456 66.0969 9.84006C66.1398 9.88546 66.1985 9.91287 66.2617 9.91681H67.8106V21.1938C67.8106 21.2546 67.8354 21.3129 67.8783 21.3558C67.9224 21.3988 67.9811 21.423 68.0432 21.423H71.3104C71.3736 21.4231 71.4346 21.3994 71.4808 21.3568C71.5271 21.3142 71.5542 21.2559 71.5587 21.1938V9.8404H74.6566L79.4264 21.1021C78.8845 22.294 78.3426 22.5232 77.6144 22.5232C76.9721 22.506 76.3444 22.3328 75.7867 22.0189C75.755 22.004 75.7212 21.9962 75.6862 21.9962C75.6512 21.9962 75.6173 22.004 75.5857 22.0189C75.5541 22.0278 75.5259 22.0433 75.5022 22.0644C75.4773 22.0857 75.4581 22.1119 75.4457 22.1412L74.4082 24.5707C74.3856 24.626 74.3845 24.6875 74.4037 24.7438C74.424 24.8 74.4635 24.8472 74.5166 24.8763C75.5993 25.4889 76.8309 25.8004 78.0784 25.7779C80.526 25.7779 81.8887 24.6471 83.0966 21.6064L88.8735 6.87596C88.8927 6.84068 88.9028 6.80136 88.9028 6.76136C88.9028 6.72147 88.8927 6.68215 88.8735 6.64676C88.8498 6.61709 88.8193 6.59339 88.7843 6.57754C88.7493 6.56159 88.7109 6.55395 88.6725 6.55507H85.1107C85.061 6.55822 85.0136 6.57395 84.973 6.6008C84.9323 6.62754 84.8996 6.66451 84.8781 6.70788L81.3309 16.7166L77.506 6.70788C77.4869 6.66237 77.4553 6.62339 77.4135 6.5962C77.3717 6.56889 77.3232 6.55462 77.2735 6.55507H71.5271Z" fill="#808D9E"/>
<path d="M64.1243 6.53955H60.795C60.6584 6.53955 60.5467 6.64899 60.5467 6.78404V21.117C60.5467 21.2521 60.6584 21.3615 60.795 21.3615H64.1243C64.262 21.3615 64.3727 21.2521 64.3727 21.117V6.78404C64.3727 6.64899 64.262 6.53955 64.1243 6.53955Z" fill="#808D9E"/>
<path d="M62.4672 4.9524e-05C61.992 -0.00298413 61.5257 0.133418 61.1294 0.391728C60.732 0.65015 60.4227 1.01902 60.2387 1.45148C60.0547 1.88406 60.005 2.36068 60.0953 2.82112C60.1868 3.28156 60.4137 3.70504 60.749 4.03784C61.0843 4.37053 61.5122 4.5976 61.9773 4.6903C62.4435 4.78288 62.9267 4.73693 63.367 4.55817C63.8062 4.37929 64.1821 4.0757 64.4463 3.68594C64.7116 3.29617 64.8527 2.83764 64.8527 2.36854C64.8539 2.05821 64.794 1.75058 64.6755 1.46328C64.5558 1.17598 64.3808 0.914864 64.1596 0.694643C63.9372 0.474535 63.6741 0.299819 63.384 0.180608C63.0927 0.0613965 62.7822 4.9524e-05 62.4672 4.9524e-05Z" fill="#808D9E"/>
<path d="M91.6461 11.1388C91.3379 11.1408 91.0331 11.0825 90.7486 10.9674C90.4641 10.8521 90.2056 10.6822 89.9877 10.4676C89.7698 10.2529 89.5982 9.99772 89.4808 9.71694C89.3645 9.43604 89.3058 9.13504 89.3081 8.83156C89.3081 8.21551 89.5553 7.62473 89.9967 7.18912C90.4382 6.75362 91.0376 6.50891 91.6619 6.50891C91.969 6.50689 92.2738 6.5652 92.5594 6.68037C92.8439 6.79564 93.1025 6.96553 93.3204 7.18013C93.5371 7.39485 93.7099 7.65001 93.8261 7.9309C93.9436 8.21168 94.0022 8.51269 94 8.81628C94 9.43222 93.7527 10.023 93.3113 10.4586C92.8688 10.8941 92.2704 11.1388 91.6461 11.1388ZM91.6461 6.73812C91.225 6.73508 90.813 6.85564 90.4619 7.08451C90.1108 7.31339 89.8364 7.64012 89.6738 8.02326C89.5113 8.4064 89.4673 8.82864 89.5485 9.23616C89.6298 9.64357 89.833 10.0181 90.1299 10.3118C90.428 10.6055 90.8073 10.8051 91.2205 10.8853C91.6337 10.9657 92.0616 10.9229 92.45 10.7625C92.8383 10.6022 93.1691 10.3315 93.4016 9.98502C93.6331 9.6384 93.755 9.23155 93.7528 8.81628C93.755 8.54404 93.702 8.27415 93.5981 8.02214C93.4931 7.77012 93.3396 7.54091 93.1454 7.34765C92.9512 7.15451 92.7198 7.00115 92.4658 6.89654C92.2106 6.79194 91.9374 6.73812 91.6619 6.73812H91.6461ZM92.1722 9.06066L92.8236 9.9775H92.2659L91.6766 9.13717H91.1663V9.9775H90.6854V7.54799H91.7861C92.3585 7.54799 92.7457 7.83832 92.7457 8.31202C92.7491 8.47988 92.6961 8.64426 92.5956 8.77954C92.4951 8.91493 92.3517 9.01369 92.188 9.06066H92.1722ZM91.7703 7.96057H91.1663V8.7246H91.7703C92.0797 8.7246 92.2659 8.58707 92.2659 8.34258C92.2659 8.09809 92.0954 7.96057 91.7861 7.96057H91.7703Z" fill="#808D9E"/>
</svg>
