<svg width="14" height="17" viewBox="0 0 14 17" fill="none" xmlns="http://www.w3.org/2000/svg">
<path d="M7 17C7.116 17 7.328 16.9574 7.561 16.8298C12.316 14.2128 14 13.0213 14 9.8723V3.4681C14 2.5958 13.587 2.3298 12.93 2.0426C12.073 1.6702 8.56699 0.425501 7.70999 0.127701C7.48699 0.0532008 7.244 0 7 0C6.756 0 6.50201 0.0745008 6.29001 0.127701C5.43301 0.340401 1.92701 1.6809 1.07001 2.0426C0.413007 2.3191 0 2.5958 0 3.4681V9.8723C0 13.0213 1.684 14.2021 6.439 16.8298C6.672 16.9574 6.884 17 7 17ZM7.28601 1.5957C8.63101 2.1383 10.887 2.9362 12.274 3.4043C12.454 3.4681 12.486 3.5638 12.486 3.7553V9.5C12.486 12.0851 11.352 12.766 7.53 15.0638C7.265 15.2234 7.13799 15.2553 7.01099 15.2553V1.5426C7.08499 1.5426 7.18001 1.5532 7.28601 1.5957Z" fill="white"/>
</svg>
