<svg width="116" height="112" viewBox="0 0 116 112" fill="none" xmlns="http://www.w3.org/2000/svg">
<path d="M19.4554 1.99999C19.4554 6.05605 20.0088 11.108 19.9718 16.8705M19.9718 16.8705C19.9054 27.2123 17.9374 39.8426 7.45606 53.1115C-4.61158 68.3886 5.02243 35.4831 19.9718 16.8705ZM19.9718 16.8705C24.7717 10.8945 30.1194 6.39191 35.4728 5.43056C44.9882 3.72181 44.9268 17.2663 40.9519 33.9237M40.9519 33.9237C34.1711 62.3402 16.0014 99.8162 14.5589 86.0799C13.7671 78.5396 27.7162 51.1816 40.9519 33.9237ZM40.9519 33.9237C49.1131 23.2825 57.0031 16.4814 60.9989 20.5339C64.2955 23.8774 64.6384 31.118 63.1635 40.1038M63.1635 40.1038C58.676 67.4437 37.3615 110.94 31.2201 109.984C21.0428 108.4 43.7943 63.5494 63.1635 40.1038ZM63.1635 40.1038C71.1913 30.3864 78.6381 24.3461 82.9187 26.5872C91.545 31.1036 88.8586 48.3082 82.3303 64.9237M82.3303 64.9237C75.6754 81.8615 65.0281 98.1871 58.3025 99.835C51.5823 101.482 64.902 78.6432 82.3303 64.9237ZM82.3303 64.9237C92.5445 56.8832 104.17 51.9747 114 56.9628" stroke="#CABDFF" stroke-width="4" stroke-linecap="round"/>
</svg>
