<svg width="704" height="766" viewBox="0 0 704 766" fill="none" xmlns="http://www.w3.org/2000/svg">
<path d="M390.878 0.5C454.372 0.500044 513.191 14.2889 567.327 41.8701C621.974 69.4471 667 106.463 702.397 152.917L702.763 153.396L702.226 153.666L557.19 226.877L556.851 227.049L556.595 226.766C534.808 202.656 509.395 184.336 480.352 171.801L480.345 171.798C451.296 158.778 421.475 152.271 390.878 152.271C348.341 152.271 309.706 163.119 274.959 184.813L274.957 184.814C240.72 206.032 213.486 234.24 193.254 269.443C173.545 304.158 163.689 342.249 163.689 383.725C163.689 424.713 173.804 462.803 194.033 498.003H194.032C214.264 532.723 241.496 560.69 275.734 581.909L277.366 582.896C311.683 603.451 349.517 613.729 390.878 613.729C423.035 613.729 453.633 606.98 482.678 593.48C511.733 579.976 536.37 562.134 556.596 539.957L556.852 539.677L557.19 539.848L702.226 613.059L702.765 613.331L702.396 613.81C667 659.779 621.974 696.552 567.328 724.128L567.329 724.129C513.193 751.711 454.373 765.5 390.878 765.5C319.057 765.5 253.47 748.324 194.129 713.968L194.127 713.967C135.315 679.616 88.2097 633.65 52.8174 576.074L52.8154 576.069C17.9379 518 0.5 453.881 0.5 383.725C0.500031 330.503 10.6498 280.902 30.9531 234.927C51.2516 188.48 79.0986 147.835 114.493 112.997L114.494 112.996C150.409 77.6744 192.05 50.0946 239.412 30.2578C286.781 10.4184 337.271 0.5 390.878 0.5Z" fill="white" stroke="#DFE4EC"/>
</svg>
