<svg width="36" height="36" viewBox="0 0 36 36" fill="none" xmlns="http://www.w3.org/2000/svg">
<rect width="36" height="36" rx="18" fill="white" fill-opacity="0.1"/>
<path d="M18 16.4572C19.5015 16.4572 20.7188 15.24 20.7188 13.7385C20.7188 12.237 19.5015 11.0197 18 11.0197C16.4985 11.0197 15.2812 12.237 15.2812 13.7385C15.2812 15.24 16.4985 16.4572 18 16.4572Z" fill="white"/>
<path d="M23.5 16.4572C24.4492 16.4572 25.2188 15.6877 25.2188 14.7384C25.2188 13.7892 24.4492 13.0197 23.5 13.0197C22.5508 13.0197 21.7812 13.7892 21.7812 14.7384C21.7812 15.6877 22.5508 16.4572 23.5 16.4572Z" fill="white"/>
<path d="M12.5 16.4572C13.4492 16.4572 14.2188 15.6877 14.2188 14.7384C14.2188 13.7892 13.4492 13.0197 12.5 13.0197C11.5508 13.0197 10.7812 13.7892 10.7812 14.7384C10.7812 15.6877 11.5508 16.4572 12.5 16.4572Z" fill="white"/>
<path d="M14.1934 18.0007C13.5169 17.4464 12.9042 17.5198 12.1219 17.5198C10.9519 17.5198 10 18.466 10 19.6288V23.0416C10 23.5466 10.4122 23.9572 10.9191 23.9572C13.1074 23.9572 12.8438 23.9968 12.8438 23.8629C12.8438 21.4446 12.5573 19.6711 14.1934 18.0007Z" fill="white"/>
<path d="M18.744 17.5323C17.3777 17.4183 16.19 17.5336 15.1656 18.3791C13.4513 19.7523 13.7812 21.6011 13.7812 23.8629C13.7812 24.4613 14.2681 24.9572 14.8756 24.9572C21.4719 24.9572 21.7344 25.17 22.1256 24.3038C22.2539 24.0109 22.2187 24.104 22.2187 21.3016C22.2187 19.0758 20.2914 17.5323 18.744 17.5323Z" fill="white"/>
<path d="M23.8781 17.5198C23.0915 17.5198 22.4822 17.4471 21.8065 18.0007C23.4304 19.6587 23.1562 21.3112 23.1562 23.8629C23.1562 23.9977 22.9374 23.9572 25.0481 23.9572C25.5731 23.9572 26 23.5319 26 23.0091V19.6288C26 18.466 25.0481 17.5198 23.8781 17.5198Z" fill="white"/>
</svg>
