<svg width="15" height="15" viewBox="0 0 15 15" fill="none" xmlns="http://www.w3.org/2000/svg">
<path d="M7.37395 15C7.86765 15 8.26678 14.6055 8.26678 14.1096V8.41847H13.8235C14.3172 8.41847 14.7269 8.00146 14.7269 7.50566C14.7269 7.00976 14.3172 6.59274 13.8235 6.59274H8.26678V0.890335C8.26678 0.394433 7.86765 0 7.37395 0C6.86975 0 6.4601 0.394433 6.4601 0.890335V6.59274H0.913859C0.420162 6.59274 0 7.00976 0 7.50566C0 8.00146 0.420162 8.41847 0.913859 8.41847H6.4601V14.1096C6.4601 14.6055 6.86975 15 7.37395 15Z" fill="white"/>
</svg>
