<svg width="135" height="32" viewBox="0 0 135 32" fill="none" xmlns="http://www.w3.org/2000/svg">
<path d="M12.1894 6.59534C5.12675 6.59534 0 11.9584 0 19.3475C0 26.7968 5.11317 32 12.4357 32C16.1342 32 19.0622 30.8189 21.3909 28.3873C22.0866 27.6203 22.1613 26.881 22.1613 26.5983C22.1613 25.3938 21.2842 24.5187 20.0761 24.5187C19.4667 24.5187 18.9575 24.7538 18.373 25.3056C17.0543 26.5603 15.3179 27.8425 12.4357 27.8425C8.42756 27.8425 5.16813 24.769 4.96284 20.8225H20.9147C22.6491 20.8225 23.492 19.9937 23.492 18.2909C23.492 17.789 23.492 17.4274 23.393 16.7136C22.5337 10.3784 18.3461 6.59633 12.19 6.59633L12.1894 6.59534ZM12.1894 10.5511C16.0194 10.5511 18.4767 13.0441 18.6284 17.0675H4.96769C5.32655 13.3439 8.40881 10.5511 12.1894 10.5511ZM38.7242 6.59534C35.5158 6.59534 32.3392 8.47978 31.0977 11.0969V9.47928C31.0977 6.97408 29.1968 6.84695 28.8159 6.84695C27.6896 6.84695 26.4853 7.53839 26.4853 9.47928V29.0137C26.4853 31.6157 28.5091 31.7471 28.9145 31.7471C29.3203 31.7471 31.3447 31.6157 31.3447 29.0137V18.5419C31.3447 13.9858 33.8728 10.8034 37.4921 10.8034C40.9975 10.8034 42.7023 13.153 42.7023 17.9875V29.0137C42.7023 31.6157 44.7267 31.7471 45.1324 31.7471C45.5378 31.7471 47.5617 31.6157 47.5617 29.0137V16.4289C47.5617 11.6754 45.2398 6.597 38.7242 6.597V6.59534ZM69.5484 6.84728C68.4256 6.84728 67.6112 7.51626 67.1263 8.83243L60.4781 25.9075L53.8804 8.83243C53.3638 7.49678 52.5555 6.84728 51.4088 6.84728C50.0691 6.84728 48.9786 7.91514 48.9786 9.228C48.9786 9.55258 49.0148 9.97425 49.2838 10.632L56.9242 29.0576C57.8346 31.2805 59.332 31.7471 60.4286 31.7471C61.5243 31.7471 63.0227 31.2805 63.9351 29.0589L71.6249 10.5306C71.8877 9.8808 71.9284 9.40367 71.9284 9.17781C71.9284 7.84976 70.9043 6.84761 69.5484 6.84761V6.84728ZM83.6733 6.59534C80.5655 6.59534 77.6707 7.47961 75.5238 9.08304C74.7954 9.59617 74.4414 10.2361 74.4414 11.0411C74.4414 12.1492 75.2697 13.018 76.3294 13.018C76.7875 13.018 77.3006 12.8318 77.7713 12.495C79.6173 11.2382 81.3517 10.6521 83.2291 10.6521C86.8218 10.6521 88.8844 12.5184 88.8844 15.7728V16.3117C80.8193 16.3206 72.6164 17.3155 72.6164 24.4818C72.6164 29.6394 76.9317 31.9485 81.2082 31.9485C84.6144 31.9485 87.3346 30.5699 89.0797 27.96V29.2151C89.0797 31.084 90.3082 31.7467 91.3628 31.7467C91.5845 31.7467 93.545 31.6757 93.545 29.2151V16.074C93.545 10.1377 89.8537 6.59402 83.673 6.59402L83.6733 6.59534ZM87.8622 19.966H88.8844V21.1095C88.8844 25.2911 86.2774 27.9927 82.244 27.9927C81.149 27.9927 77.5757 27.7325 77.5757 24.381C77.5757 20.4236 83.446 19.9663 87.8622 19.9663V19.966ZM106.202 11.3571C108.328 11.3571 108.435 9.66716 108.435 9.32871C108.435 8.32392 107.848 7.24979 106.202 7.24979H101.83V2.73337C101.83 0.715866 100.548 0 99.4499 0C99.0445 0 97.0207 0.131418 97.0207 2.73337V24.1809C97.0207 29.1306 99.4111 31.7467 103.935 31.7467C105.105 31.7467 106.246 31.5354 106.991 31.1805C107.847 30.7446 108.337 30.0281 108.337 29.2151C108.337 28.0683 107.522 27.2366 106.399 27.2366C106.182 27.2366 105.874 27.2914 105.534 27.3914C105.118 27.4978 104.836 27.539 104.527 27.539C102.687 27.539 101.83 26.312 101.83 23.6771V11.3548H106.202V11.3571ZM122.268 6.59534C114.919 6.59534 109.587 11.9161 109.587 19.2458C109.587 22.8146 110.879 26.0674 113.224 28.4042C115.55 30.7225 118.762 31.999 122.269 31.999C129.527 31.999 135 26.5164 135 19.2462C135 11.9161 129.644 6.59567 122.269 6.59567H122.268V6.59534ZM122.268 27.7907C117.228 27.7907 114.593 23.4922 114.593 19.2452C114.593 13.4099 118.572 10.7525 122.268 10.7525C125.965 10.7525 129.944 13.4099 129.944 19.2452C129.944 25.1171 125.965 27.7907 122.268 27.7907Z" fill="#808D9E"/>
</svg>
