<svg width="32" height="35" viewBox="0 0 32 35" fill="none" xmlns="http://www.w3.org/2000/svg">
<path d="M25.3793 24.6417L32 27.9869C30.3863 30.0845 28.3337 31.7626 25.842 33.0212C23.3741 34.2798 20.6926 34.9091 17.7975 34.9091C14.5228 34.9091 11.5328 34.1252 8.82758 32.5575C6.14609 30.9898 3.99851 28.8922 2.38487 26.2646C0.794957 23.615 0 20.6893 0 17.4877C0 15.0588 0.462736 12.7956 1.38821 10.6979C2.31368 8.57822 3.58324 6.72347 5.19688 5.13369C6.83426 3.52182 8.73266 2.26324 10.8921 1.35794C13.0515 0.452647 15.3533 0 17.7975 0C20.6926 0 23.3741 0.62929 25.842 1.88787C28.3337 3.14645 30.3863 4.8356 32 6.95532L25.3793 10.3005C24.3826 9.19647 23.2199 8.35742 21.891 7.78333C20.5621 7.18716 19.1976 6.88907 17.7975 6.88907C15.8517 6.88907 14.0838 7.38588 12.4939 8.3795C10.9277 9.35104 9.68186 10.6427 8.75639 12.2546C7.85465 13.8444 7.40378 15.5887 7.40378 17.4877C7.40378 19.3645 7.86651 21.1088 8.79199 22.7207C9.71746 24.3105 10.9633 25.5912 12.5295 26.5627C14.1194 27.5342 15.8754 28.02 17.7975 28.02C19.2688 28.02 20.6689 27.7109 21.9978 27.0926C23.3266 26.4744 24.4538 25.6574 25.3793 24.6417Z" fill="white"/>
</svg>
