<svg width="15" height="19" viewBox="0 0 15 19" fill="none" xmlns="http://www.w3.org/2000/svg">
<path d="M7.48999 12.3969C7.90999 12.3969 8.26001 12.056 8.26001 11.6513V3.3442L8.19995 2.0661L8.65002 2.556L9.81995 3.8234C9.95995 3.9725 10.15 4.0471 10.33 4.0471C10.74 4.0471 11.03 3.7702 11.03 3.3868C11.03 3.1738 10.95 3.0247 10.8 2.8862L8.05005 0.2556C7.86005 0.0639 7.69999 0 7.48999 0C7.29999 0 7.13994 0.0639 6.93994 0.2556L4.18994 2.8862C4.04994 3.0247 3.96997 3.1738 3.96997 3.3868C3.96997 3.7702 4.25003 4.0471 4.66003 4.0471C4.84003 4.0471 5.04005 3.9725 5.18005 3.8234L6.34998 2.556L6.80005 2.0661L6.73999 3.3442V11.6513C6.73999 12.056 7.08999 12.3969 7.48999 12.3969ZM2.71997 19H12.28C14.1 19 15 18.1054 15 16.3161V8.1261C15 6.3369 14.1 5.4423 12.28 5.4423H9.98999V6.9865H12.26C13.02 6.9865 13.46 7.4019 13.46 8.2007V16.2416C13.46 17.051 13.02 17.4557 12.26 17.4557H2.73999C1.96999 17.4557 1.54004 17.051 1.54004 16.2416V8.2007C1.54004 7.4019 1.96999 6.9865 2.73999 6.9865H5.01001V5.4423H2.71997C0.909971 5.4423 0 6.3369 0 8.1261V16.3161C0 18.1054 0.909971 19 2.71997 19Z" fill="white"/>
</svg>
