<svg width="39" height="38" viewBox="0 0 39 38" fill="none" xmlns="http://www.w3.org/2000/svg">
<path d="M19.2577 0C15.4488 0 11.7256 1.11432 8.55863 3.20202C5.39181 5.28983 2.92352 8.25725 1.46586 11.729C0.00832435 15.2008 -0.373033 19.0211 0.370077 22.7067C1.11308 26.3924 2.94716 29.7778 5.64041 32.4351C8.33367 35.0922 11.7651 36.9018 15.5007 37.6349C19.2363 38.368 23.1084 37.9918 26.6272 36.5537C30.1461 35.1156 33.1537 32.6804 35.2698 29.5558C37.3859 26.4313 38.5153 22.7579 38.5153 19C38.5153 13.9609 36.4864 9.12817 32.8749 5.56501C29.2633 2.00174 24.3652 0 19.2577 0ZM28.0949 27.4007C28.013 27.5349 27.9048 27.6518 27.7768 27.7444C27.6486 27.8371 27.5031 27.9036 27.3486 27.9403C27.1942 27.977 27.0339 27.983 26.877 27.9581C26.7202 27.9331 26.57 27.8777 26.4351 27.7949C21.9166 25.0654 16.2299 24.4589 9.52894 25.9601C9.37647 25.996 9.21839 26.0017 9.06367 25.9767C8.90907 25.9519 8.76085 25.8969 8.62798 25.8152C8.495 25.7333 8.37982 25.6263 8.28908 25.5002C8.19833 25.3741 8.13403 25.2315 8.09963 25.0806C8.063 24.9293 8.05717 24.7723 8.08215 24.6187C8.10725 24.465 8.16271 24.3178 8.2455 24.1854C8.32829 24.053 8.43685 23.9381 8.56468 23.8471C8.69262 23.7561 8.83748 23.6909 8.99096 23.6552C16.3221 22.0024 22.6235 22.7151 27.6954 25.7781C27.966 25.9414 28.16 26.2038 28.2349 26.5079C28.3098 26.8121 28.2595 27.1331 28.0949 27.4007ZM30.4465 22.2298C30.2317 22.5558 29.8982 22.7879 29.5149 22.8782C29.1317 22.9685 28.7279 22.9101 28.387 22.7151C22.5433 19.4989 15.6446 18.7027 9.20618 20.5011C9.00586 20.6114 8.78303 20.676 8.55415 20.6901C8.32515 20.7043 8.09593 20.6677 7.88319 20.5831C7.67044 20.4985 7.47965 20.368 7.32471 20.2011C7.16977 20.0343 7.05459 19.8353 6.98771 19.6188C6.92083 19.4023 6.90391 19.1739 6.93819 18.9501C6.97247 18.7263 7.05706 18.513 7.18578 18.3257C7.31451 18.1384 7.48413 17.9819 7.68209 17.8677C7.88016 17.7535 8.10154 17.6843 8.33009 17.6656C11.9237 16.645 15.6879 16.3431 19.4014 16.7781C23.115 17.2129 26.703 18.3756 29.9547 20.198C30.285 20.4098 30.5202 20.7389 30.6117 21.1169C30.7033 21.4951 30.6441 21.8935 30.4465 22.2298ZM30.6462 16.8468C24.4986 13.2075 14.2166 12.8739 8.28404 14.648C7.82751 14.7848 7.33456 14.737 6.91377 14.5151C6.49298 14.2933 6.17873 13.9157 6.04014 13.4652C5.90156 13.0149 5.94996 12.5285 6.17481 12.1133C6.39954 11.6982 6.78236 11.3881 7.23889 11.2514C14.0475 9.21949 25.3439 9.61374 32.4906 13.7837C32.858 14.0431 33.113 14.4295 33.2048 14.866C33.2966 15.3024 33.2185 15.757 32.986 16.1393C32.7536 16.5215 32.3838 16.8034 31.9503 16.9288C31.5167 17.0544 31.0511 17.0142 30.6462 16.8164V16.8468Z" fill="#808D9E"/>
</svg>
