<svg width="24" height="24" viewBox="0 0 24 24" fill="none" xmlns="http://www.w3.org/2000/svg">
<path d="M11.68 16.93L15.75 21L17.54 19.21C17.6442 19.1062 17.7242 18.9807 17.7743 18.8424C17.8245 18.7041 17.8435 18.5565 17.83 18.41L17.18 11.3" stroke="#1D1E25" stroke-width="2" stroke-linecap="round" stroke-linejoin="round"/>
<path d="M9.37 4.71L8 6.13M9.37 17.46C9.46296 17.5537 9.57356 17.6281 9.69542 17.6789C9.81728 17.7297 9.94799 17.7558 10.08 17.7558C10.212 17.7558 10.3427 17.7297 10.4646 17.6789C10.5864 17.6281 10.697 17.5537 10.79 17.46L18.7 9.55C20.1713 8.07754 20.9985 6.08157 21 4C21 3.73478 20.8946 3.48043 20.7071 3.29289C20.5196 3.10536 20.2652 3 20 3C17.9184 3.00151 15.9225 3.82867 14.45 5.3L6.54 13.21C6.44627 13.303 6.37188 13.4136 6.32111 13.5354C6.27034 13.6573 6.2442 13.788 6.2442 13.92C6.2442 14.052 6.27034 14.1827 6.32111 14.3046C6.37188 14.4264 6.44627 14.537 6.54 14.63L9.37 17.46ZM17.87 16L19.29 14.59L17.87 16Z" stroke="#1D1E25" stroke-width="2" stroke-linecap="round" stroke-linejoin="round"/>
<path d="M12.75 6.82001L5.59 6.17C5.44353 6.15653 5.2959 6.17554 5.15761 6.22567C5.01933 6.27579 4.89381 6.35581 4.79 6.46L3 8.25L7.09 12.34" stroke="#1D1E25" stroke-width="2" stroke-linecap="round" stroke-linejoin="round"/>
</svg>
