<svg width="20" height="15" viewBox="0 0 20 15" fill="none" xmlns="http://www.w3.org/2000/svg">
<path d="M2.623 15H16.461C18.22 15 19.084 14.1358 19.084 12.4074V2.5926C19.084 0.8642 18.22 0 16.461 0H2.623C0.874001 0 0 0.8642 0 2.5926V12.4074C0 14.1358 0.874001 15 2.623 15ZM2.644 13.5082C1.903 13.5082 1.481 13.1173 1.481 12.3354V2.6646C1.481 1.893 1.903 1.4918 2.644 1.4918H6.224V13.5082H2.644ZM16.44 1.4918C17.181 1.4918 17.603 1.893 17.603 2.6646V12.3354C17.603 13.1173 17.181 13.5082 16.44 13.5082H7.675V1.4918H16.44ZM4.67101 4.4753C4.94901 4.4753 5.185 4.2284 5.185 3.9609C5.185 3.6934 4.94901 3.4671 4.67101 3.4671H3.056C2.788 3.4671 2.55099 3.6934 2.55099 3.9609C2.55099 4.2284 2.788 4.4753 3.056 4.4753H4.67101ZM4.67101 6.5329C4.94901 6.5329 5.185 6.2963 5.185 6.0185C5.185 5.751 4.94901 5.5247 4.67101 5.5247H3.056C2.788 5.5247 2.55099 5.751 2.55099 6.0185C2.55099 6.2963 2.788 6.5329 3.056 6.5329H4.67101ZM4.67101 8.5905C4.94901 8.5905 5.185 8.3539 5.185 8.0864C5.185 7.8189 4.94901 7.5926 4.67101 7.5926H3.056C2.788 7.5926 2.55099 7.8189 2.55099 8.0864C2.55099 8.3539 2.788 8.5905 3.056 8.5905H4.67101Z" fill="white"/>
</svg>
